# xmcd CD database file
#
# Track frame offsets:
#	150
#	19209
#	40009
#	72275
#	100116
#	123859
#	145995
#	176128
#	200871
#
# Disc length: 2958 seconds
#
# Revision: 0
# Processed by: cddbd v1.5.2PL0 Copyright (c) Steve Scherf et al.
# Submitted via: CDex 1.70beta2
#
DISCID=800b8c09
DTITLE=Curasan - Jazz Masterpieces
DYEAR=2007
DGENRE=Jazz
TTITLE0=Claire Martin - Gentlemean Friend
TTITLE1=Ben Webster  Tete Montoliu Trio - Barcelona Shout
TTITLE2=Michel Camilo and Bob James - La Comparsa
TTITLE3=Jim Hall and Larry Goldings - I' m in the mood for love
TTITLE4=Metro - One A Day
TTITLE5=Chaka Khan and Lenny White - Why Do You Love
TTITLE6=The Meeting - Late One Night
TTITLE7=Dave McMurray and Bob James - 7 Day Love
TTITLE8=Gato Barbieri and Bob James - Cubano Chant
EXTD=YEAR: 2007
EXTT0=
EXTT1=
EXTT2=
EXTT3=
EXTT4=
EXTT5=
EXTT6=
EXTT7=
EXTT8=
PLAYORDER=
